<svg id="visual" viewBox="0 0 900 675" width="900" height="675" xmlns="http://www.w3.org/2000/svg" xmlns:xlink="http://www.w3.org/1999/xlink" version="1.1"><g stroke-width="1" stroke-linejoin="bevel"><path d="M449 359L449 314L405 314Z" fill="#121824" stroke="#121824"></path><path d="M405 314L404 359L449 359Z" fill="#141a28" stroke="#141a28"></path><path d="M449 314L405 270L405 314Z" fill="#131926" stroke="#131926"></path><path d="M405 314L359 315L404 359Z" fill="#161d2f" stroke="#161d2f"></path><path d="M449 359L494 359L449 314Z" fill="#151b2b" stroke="#151b2b"></path><path d="M494 359L494 314L449 314Z" fill="#121824" stroke="#121824"></path><path d="M449 314L450 269L405 270Z" fill="#151c2d" stroke="#151c2d"></path><path d="M404 359L449 404L449 359Z" fill="#111520" stroke="#111520"></path><path d="M449 359L449 404L494 359Z" fill="#131926" stroke="#131926"></path><path d="M494 270L450 269L449 314Z" fill="#151c2d" stroke="#151c2d"></path><path d="M360 270L359 315L405 314Z" fill="#121824" stroke="#121824"></path><path d="M404 359L404 405L449 404Z" fill="#141a28" stroke="#141a28"></path><path d="M359 315L359 360L404 359Z" fill="#121723" stroke="#121723"></path><path d="M359 360L404 405L404 359Z" fill="#161d2f" stroke="#161d2f"></path><path d="M494 314L494 270L449 314Z" fill="#111520" stroke="#111520"></path><path d="M404 225L360 270L405 270Z" fill="#161d2f" stroke="#161d2f"></path><path d="M405 270L360 270L405 314Z" fill="#151c2d" stroke="#151c2d"></path><path d="M449 450L495 404L449 404Z" fill="#131926" stroke="#131926"></path><path d="M449 404L495 404L494 359Z" fill="#141b2a" stroke="#141b2a"></path><path d="M494 359L539 315L494 314Z" fill="#161d2f" stroke="#161d2f"></path><path d="M494 314L539 315L494 270Z" fill="#141b2a" stroke="#141b2a"></path><path d="M359 360L359 405L404 405Z" fill="#161d2f" stroke="#161d2f"></path><path d="M494 224L449 225L450 269Z" fill="#151b2b" stroke="#151b2b"></path><path d="M450 269L449 225L405 270Z" fill="#151b2b" stroke="#151b2b"></path><path d="M449 225L404 225L405 270Z" fill="#121723" stroke="#121723"></path><path d="M539 360L539 315L494 359Z" fill="#151c2d" stroke="#151c2d"></path><path d="M360 270L315 314L359 315Z" fill="#161d2f" stroke="#161d2f"></path><path d="M359 315L314 359L359 360Z" fill="#151c2d" stroke="#151c2d"></path><path d="M359 360L314 405L359 405Z" fill="#111621" stroke="#111621"></path><path d="M315 269L315 314L360 270Z" fill="#151b2b" stroke="#151b2b"></path><path d="M495 404L539 360L494 359Z" fill="#121723" stroke="#121723"></path><path d="M360 450L405 449L404 405Z" fill="#111520" stroke="#111520"></path><path d="M404 405L405 449L449 404Z" fill="#141a28" stroke="#141a28"></path><path d="M315 314L314 359L359 315Z" fill="#121723" stroke="#121723"></path><path d="M405 449L449 450L449 404Z" fill="#151b2b" stroke="#151b2b"></path><path d="M360 224L315 269L360 270Z" fill="#151c2d" stroke="#151c2d"></path><path d="M315 314L270 315L314 359Z" fill="#151b2b" stroke="#151b2b"></path><path d="M539 225L494 224L494 270Z" fill="#111621" stroke="#111621"></path><path d="M494 270L494 224L450 269Z" fill="#111520" stroke="#111520"></path><path d="M405 180L360 224L404 225Z" fill="#111520" stroke="#111520"></path><path d="M405 180L404 225L449 225Z" fill="#121824" stroke="#121824"></path><path d="M404 225L360 224L360 270Z" fill="#121824" stroke="#121824"></path><path d="M540 449L540 404L495 404Z" fill="#10141e" stroke="#10141e"></path><path d="M495 404L540 404L539 360Z" fill="#151b2b" stroke="#151b2b"></path><path d="M584 360L584 314L539 315Z" fill="#121723" stroke="#121723"></path><path d="M584 314L540 269L539 315Z" fill="#121824" stroke="#121824"></path><path d="M539 315L540 269L494 270Z" fill="#141b2a" stroke="#141b2a"></path><path d="M314 449L360 450L359 405Z" fill="#131926" stroke="#131926"></path><path d="M359 405L360 450L404 405Z" fill="#151c2d" stroke="#151c2d"></path><path d="M405 449L449 494L449 450Z" fill="#121824" stroke="#121824"></path><path d="M314 359L314 405L359 360Z" fill="#131926" stroke="#131926"></path><path d="M449 450L495 450L495 404Z" fill="#111520" stroke="#111520"></path><path d="M360 224L315 225L315 269Z" fill="#111621" stroke="#111621"></path><path d="M269 270L270 315L315 314Z" fill="#131926" stroke="#131926"></path><path d="M449 180L405 180L449 225Z" fill="#111621" stroke="#111621"></path><path d="M360 224L315 179L315 225Z" fill="#161d2f" stroke="#161d2f"></path><path d="M494 224L449 180L449 225Z" fill="#161d2f" stroke="#161d2f"></path><path d="M540 269L539 225L494 270Z" fill="#121723" stroke="#121723"></path><path d="M494 224L494 179L449 180Z" fill="#111520" stroke="#111520"></path><path d="M269 270L315 314L315 269Z" fill="#161d2f" stroke="#161d2f"></path><path d="M314 359L269 360L314 405Z" fill="#141a28" stroke="#141a28"></path><path d="M584 360L539 315L539 360Z" fill="#161d2f" stroke="#161d2f"></path><path d="M540 269L584 224L539 225Z" fill="#121824" stroke="#121824"></path><path d="M585 404L584 360L540 404Z" fill="#141b2a" stroke="#141b2a"></path><path d="M540 404L584 360L539 360Z" fill="#111520" stroke="#111520"></path><path d="M404 495L449 494L405 449Z" fill="#151b2b" stroke="#151b2b"></path><path d="M449 450L449 494L495 450Z" fill="#111520" stroke="#111520"></path><path d="M314 405L314 449L359 405Z" fill="#151c2d" stroke="#151c2d"></path><path d="M360 450L404 495L405 449Z" fill="#131926" stroke="#131926"></path><path d="M269 405L314 449L314 405Z" fill="#161d2f" stroke="#161d2f"></path><path d="M540 495L540 449L495 450Z" fill="#121723" stroke="#121723"></path><path d="M495 450L540 449L495 404Z" fill="#121824" stroke="#121824"></path><path d="M270 315L269 360L314 359Z" fill="#121723" stroke="#121723"></path><path d="M359 494L404 495L360 450Z" fill="#151b2b" stroke="#151b2b"></path><path d="M584 314L584 270L540 269Z" fill="#111520" stroke="#111520"></path><path d="M405 135L360 179L405 180Z" fill="#111621" stroke="#111621"></path><path d="M405 180L360 179L360 224Z" fill="#141b2a" stroke="#141b2a"></path><path d="M540 180L494 224L539 225Z" fill="#151b2b" stroke="#151b2b"></path><path d="M540 180L494 179L494 224Z" fill="#121723" stroke="#121723"></path><path d="M449 180L405 135L405 180Z" fill="#121824" stroke="#121824"></path><path d="M270 225L315 269L315 225Z" fill="#121723" stroke="#121723"></path><path d="M270 225L269 270L315 269Z" fill="#111520" stroke="#111520"></path><path d="M270 315L225 314L269 360Z" fill="#121723" stroke="#121723"></path><path d="M314 449L359 494L360 450Z" fill="#121824" stroke="#121824"></path><path d="M540 449L585 404L540 404Z" fill="#111621" stroke="#111621"></path><path d="M629 359L629 314L584 314Z" fill="#151b2b" stroke="#151b2b"></path><path d="M584 314L629 314L584 270Z" fill="#10141e" stroke="#10141e"></path><path d="M269 360L269 405L314 405Z" fill="#141b2a" stroke="#141b2a"></path><path d="M314 449L314 495L359 494Z" fill="#10141e" stroke="#10141e"></path><path d="M450 540L495 495L449 494Z" fill="#141a28" stroke="#141a28"></path><path d="M449 494L495 495L495 450Z" fill="#141a28" stroke="#141a28"></path><path d="M540 449L584 450L585 404Z" fill="#111621" stroke="#111621"></path><path d="M315 179L270 225L315 225Z" fill="#10141e" stroke="#10141e"></path><path d="M584 224L540 180L539 225Z" fill="#141b2a" stroke="#141b2a"></path><path d="M629 225L584 224L584 270Z" fill="#111621" stroke="#111621"></path><path d="M584 270L584 224L540 269Z" fill="#141b2a" stroke="#141b2a"></path><path d="M360 179L315 179L360 224Z" fill="#131926" stroke="#131926"></path><path d="M540 495L584 450L540 449Z" fill="#121723" stroke="#121723"></path><path d="M269 405L269 450L314 449Z" fill="#111520" stroke="#111520"></path><path d="M495 495L540 495L495 450Z" fill="#111520" stroke="#111520"></path><path d="M269 450L314 495L314 449Z" fill="#131926" stroke="#131926"></path><path d="M360 540L405 539L404 495Z" fill="#141a28" stroke="#141a28"></path><path d="M450 135L449 180L494 179Z" fill="#141a28" stroke="#141a28"></path><path d="M450 135L405 135L449 180Z" fill="#151c2d" stroke="#151c2d"></path><path d="M360 179L360 134L315 179Z" fill="#151b2b" stroke="#151b2b"></path><path d="M494 135L450 135L494 179Z" fill="#151b2b" stroke="#151b2b"></path><path d="M629 359L584 360L585 404Z" fill="#111621" stroke="#111621"></path><path d="M629 359L584 314L584 360Z" fill="#151b2b" stroke="#151b2b"></path><path d="M630 405L629 359L585 404Z" fill="#141a28" stroke="#141a28"></path><path d="M225 270L225 314L269 270Z" fill="#151b2b" stroke="#151b2b"></path><path d="M269 270L225 314L270 315Z" fill="#10141e" stroke="#10141e"></path><path d="M269 360L225 360L269 405Z" fill="#151c2d" stroke="#151c2d"></path><path d="M269 405L224 450L269 450Z" fill="#141b2a" stroke="#141b2a"></path><path d="M225 314L225 360L269 360Z" fill="#141a28" stroke="#141a28"></path><path d="M360 540L404 495L359 494Z" fill="#111520" stroke="#111520"></path><path d="M404 495L405 539L449 494Z" fill="#161d2f" stroke="#161d2f"></path><path d="M495 495L539 539L540 495Z" fill="#10141e" stroke="#10141e"></path><path d="M405 539L450 540L449 494Z" fill="#121723" stroke="#121723"></path><path d="M540 180L494 135L494 179Z" fill="#141b2a" stroke="#141b2a"></path><path d="M224 225L225 270L270 225Z" fill="#121723" stroke="#121723"></path><path d="M270 225L225 270L269 270Z" fill="#161d2f" stroke="#161d2f"></path><path d="M404 89L360 134L405 135Z" fill="#151c2d" stroke="#151c2d"></path><path d="M405 135L360 134L360 179Z" fill="#111621" stroke="#111621"></path><path d="M449 89L405 135L450 135Z" fill="#141b2a" stroke="#141b2a"></path><path d="M674 315L630 270L629 314Z" fill="#131926" stroke="#131926"></path><path d="M629 314L630 270L584 270Z" fill="#111621" stroke="#111621"></path><path d="M225 360L224 404L269 405Z" fill="#131926" stroke="#131926"></path><path d="M180 359L224 404L225 360Z" fill="#131926" stroke="#131926"></path><path d="M180 359L225 360L225 314Z" fill="#111520" stroke="#111520"></path><path d="M314 539L360 540L359 494Z" fill="#121824" stroke="#121824"></path><path d="M405 539L405 584L450 540Z" fill="#131926" stroke="#131926"></path><path d="M450 540L494 540L495 495Z" fill="#151c2d" stroke="#151c2d"></path><path d="M630 449L585 404L584 450Z" fill="#141a28" stroke="#141a28"></path><path d="M630 449L630 405L585 404Z" fill="#161d2f" stroke="#161d2f"></path><path d="M629 359L674 315L629 314Z" fill="#161d2f" stroke="#161d2f"></path><path d="M629 225L584 180L584 224Z" fill="#161d2f" stroke="#161d2f"></path><path d="M584 224L584 180L540 180Z" fill="#161d2f" stroke="#161d2f"></path><path d="M540 180L540 134L494 135Z" fill="#111621" stroke="#111621"></path><path d="M269 135L269 180L315 179Z" fill="#10141e" stroke="#10141e"></path><path d="M315 179L269 180L270 225Z" fill="#161d2f" stroke="#161d2f"></path><path d="M584 540L585 494L540 495Z" fill="#131926" stroke="#131926"></path><path d="M540 495L585 494L584 450Z" fill="#111621" stroke="#111621"></path><path d="M269 450L270 495L314 495Z" fill="#161d2f" stroke="#161d2f"></path><path d="M314 495L314 539L359 494Z" fill="#10141e" stroke="#10141e"></path><path d="M224 495L270 495L269 450Z" fill="#111520" stroke="#111520"></path><path d="M630 270L629 225L584 270Z" fill="#131926" stroke="#131926"></path><path d="M360 134L315 134L315 179Z" fill="#141b2a" stroke="#141b2a"></path><path d="M494 540L539 539L495 495Z" fill="#161d2f" stroke="#161d2f"></path><path d="M269 180L224 225L270 225Z" fill="#111621" stroke="#111621"></path><path d="M179 314L180 359L225 314Z" fill="#141b2a" stroke="#141b2a"></path><path d="M270 495L314 539L314 495Z" fill="#121723" stroke="#121723"></path><path d="M584 135L540 180L584 180Z" fill="#10141e" stroke="#10141e"></path><path d="M584 135L540 134L540 180Z" fill="#111520" stroke="#111520"></path><path d="M494 90L449 89L450 135Z" fill="#151c2d" stroke="#151c2d"></path><path d="M585 494L630 449L584 450Z" fill="#151c2d" stroke="#151c2d"></path><path d="M224 404L224 450L269 405Z" fill="#141b2a" stroke="#141b2a"></path><path d="M270 495L269 540L314 539Z" fill="#151b2b" stroke="#151b2b"></path><path d="M674 359L629 359L630 405Z" fill="#141a28" stroke="#141a28"></path><path d="M674 359L674 315L629 359Z" fill="#151c2d" stroke="#151c2d"></path><path d="M630 270L674 224L629 225Z" fill="#121723" stroke="#121723"></path><path d="M674 405L674 359L630 405Z" fill="#141a28" stroke="#141a28"></path><path d="M179 314L225 314L180 270Z" fill="#111520" stroke="#111520"></path><path d="M224 404L180 405L224 450Z" fill="#111520" stroke="#111520"></path><path d="M494 90L450 135L494 135Z" fill="#131926" stroke="#131926"></path><path d="M360 134L315 90L315 134Z" fill="#121723" stroke="#121723"></path><path d="M359 584L405 584L360 540Z" fill="#121723" stroke="#121723"></path><path d="M360 540L405 584L405 539Z" fill="#161d2f" stroke="#161d2f"></path><path d="M450 540L450 584L494 540Z" fill="#141a28" stroke="#141a28"></path><path d="M494 540L540 585L539 539Z" fill="#111520" stroke="#111520"></path><path d="M405 584L450 584L450 540Z" fill="#121824" stroke="#121824"></path><path d="M449 89L404 89L405 135Z" fill="#121723" stroke="#121723"></path><path d="M180 270L225 314L225 270Z" fill="#141a28" stroke="#141a28"></path><path d="M539 90L494 90L494 135Z" fill="#151c2d" stroke="#151c2d"></path><path d="M629 179L584 135L584 180Z" fill="#161d2f" stroke="#161d2f"></path><path d="M540 134L539 90L494 135Z" fill="#131926" stroke="#131926"></path><path d="M224 225L180 270L225 270Z" fill="#121723" stroke="#121723"></path><path d="M315 134L269 135L315 179Z" fill="#111621" stroke="#111621"></path><path d="M269 180L224 179L224 225Z" fill="#161d2f" stroke="#161d2f"></path><path d="M224 225L180 225L180 270Z" fill="#121824" stroke="#121824"></path><path d="M270 89L269 135L315 134Z" fill="#121824" stroke="#121824"></path><path d="M674 224L629 179L629 225Z" fill="#131926" stroke="#131926"></path><path d="M629 225L629 179L584 180Z" fill="#141a28" stroke="#141a28"></path><path d="M134 359L180 405L180 359Z" fill="#111621" stroke="#111621"></path><path d="M180 359L180 405L224 404Z" fill="#121723" stroke="#121723"></path><path d="M630 449L674 405L630 405Z" fill="#151c2d" stroke="#151c2d"></path><path d="M404 89L360 89L360 134Z" fill="#141b2a" stroke="#141b2a"></path><path d="M314 585L359 584L314 539Z" fill="#141b2a" stroke="#141b2a"></path><path d="M314 539L359 584L360 540Z" fill="#161d2f" stroke="#161d2f"></path><path d="M720 314L675 270L674 315Z" fill="#10141e" stroke="#10141e"></path><path d="M674 315L675 270L630 270Z" fill="#121723" stroke="#121723"></path><path d="M719 359L674 315L674 359Z" fill="#131926" stroke="#131926"></path><path d="M269 135L224 179L269 180Z" fill="#141b2a" stroke="#141b2a"></path><path d="M540 585L584 540L539 539Z" fill="#151b2b" stroke="#151b2b"></path><path d="M539 539L584 540L540 495Z" fill="#111520" stroke="#111520"></path><path d="M585 494L630 495L630 449Z" fill="#131926" stroke="#131926"></path><path d="M630 449L675 449L674 405Z" fill="#10141e" stroke="#10141e"></path><path d="M450 629L494 585L450 584Z" fill="#141a28" stroke="#141a28"></path><path d="M450 584L494 585L494 540Z" fill="#161d2f" stroke="#161d2f"></path><path d="M450 629L450 584L405 584Z" fill="#121824" stroke="#121824"></path><path d="M630 539L630 495L585 494Z" fill="#121723" stroke="#121723"></path><path d="M179 494L224 495L224 450Z" fill="#141a28" stroke="#141a28"></path><path d="M224 450L224 495L269 450Z" fill="#141b2a" stroke="#141b2a"></path><path d="M225 539L269 540L270 495Z" fill="#141a28" stroke="#141a28"></path><path d="M360 89L315 90L360 134Z" fill="#151b2b" stroke="#151b2b"></path><path d="M269 135L224 135L224 179Z" fill="#10141e" stroke="#10141e"></path><path d="M584 89L540 134L584 135Z" fill="#161d2f" stroke="#161d2f"></path><path d="M584 89L539 90L540 134Z" fill="#141b2a" stroke="#141b2a"></path><path d="M450 45L405 45L449 89Z" fill="#131926" stroke="#131926"></path><path d="M224 179L180 225L224 225Z" fill="#111520" stroke="#111520"></path><path d="M135 270L134 315L179 314Z" fill="#141a28" stroke="#141a28"></path><path d="M675 270L674 224L630 270Z" fill="#151c2d" stroke="#151c2d"></path><path d="M674 494L675 449L630 449Z" fill="#111520" stroke="#111520"></path><path d="M719 404L719 359L674 359Z" fill="#151b2b" stroke="#151b2b"></path><path d="M134 405L179 450L180 405Z" fill="#141b2a" stroke="#141b2a"></path><path d="M180 405L179 450L224 450Z" fill="#111621" stroke="#111621"></path><path d="M269 540L314 585L314 539Z" fill="#121723" stroke="#121723"></path><path d="M405 630L450 629L405 584Z" fill="#151b2b" stroke="#151b2b"></path><path d="M494 585L540 585L494 540Z" fill="#141a28" stroke="#141a28"></path><path d="M584 540L630 539L585 494Z" fill="#141a28" stroke="#141a28"></path><path d="M224 495L225 539L270 495Z" fill="#111621" stroke="#111621"></path><path d="M269 540L269 584L314 585Z" fill="#121824" stroke="#121824"></path><path d="M180 539L225 539L224 495Z" fill="#131926" stroke="#131926"></path><path d="M674 179L629 134L629 179Z" fill="#141a28" stroke="#141a28"></path><path d="M629 179L629 134L584 135Z" fill="#141a28" stroke="#141a28"></path><path d="M224 89L224 135L269 135Z" fill="#111621" stroke="#111621"></path><path d="M224 179L179 179L180 225Z" fill="#141a28" stroke="#141a28"></path><path d="M585 584L630 539L584 540Z" fill="#111621" stroke="#111621"></path><path d="M630 495L674 494L630 449Z" fill="#111520" stroke="#111520"></path><path d="M449 89L405 45L404 89Z" fill="#161d2f" stroke="#161d2f"></path><path d="M404 89L360 45L360 89Z" fill="#131926" stroke="#131926"></path><path d="M360 89L315 45L315 90Z" fill="#121824" stroke="#121824"></path><path d="M315 90L270 89L315 134Z" fill="#141b2a" stroke="#141b2a"></path><path d="M450 45L449 89L494 90Z" fill="#131926" stroke="#131926"></path><path d="M494 45L494 90L539 90Z" fill="#131926" stroke="#131926"></path><path d="M494 45L450 45L494 90Z" fill="#141a28" stroke="#141a28"></path><path d="M719 404L674 359L674 405Z" fill="#151c2d" stroke="#151c2d"></path><path d="M675 270L720 225L674 224Z" fill="#151b2b" stroke="#151b2b"></path><path d="M674 539L674 494L630 495Z" fill="#141b2a" stroke="#141b2a"></path><path d="M675 449L719 404L674 405Z" fill="#121723" stroke="#121723"></path><path d="M674 224L674 179L629 179Z" fill="#121723" stroke="#121723"></path><path d="M719 179L674 179L674 224Z" fill="#111621" stroke="#111621"></path><path d="M629 134L584 89L584 135Z" fill="#141a28" stroke="#141a28"></path><path d="M315 45L270 89L315 90Z" fill="#131926" stroke="#131926"></path><path d="M405 630L405 584L360 630Z" fill="#141a28" stroke="#141a28"></path><path d="M494 585L495 629L540 585Z" fill="#151b2b" stroke="#151b2b"></path><path d="M225 539L269 584L269 540Z" fill="#161d2f" stroke="#161d2f"></path><path d="M360 630L405 584L359 584Z" fill="#151b2b" stroke="#151b2b"></path><path d="M584 630L585 584L540 585Z" fill="#111621" stroke="#111621"></path><path d="M540 585L585 584L584 540Z" fill="#121824" stroke="#121824"></path><path d="M179 450L179 494L224 450Z" fill="#151c2d" stroke="#151c2d"></path><path d="M225 539L225 585L269 584Z" fill="#141a28" stroke="#141a28"></path><path d="M224 135L179 179L224 179Z" fill="#121723" stroke="#121723"></path><path d="M135 270L179 314L180 270Z" fill="#131926" stroke="#131926"></path><path d="M179 134L179 179L224 135Z" fill="#111621" stroke="#111621"></path><path d="M135 270L180 270L180 225Z" fill="#131926" stroke="#131926"></path><path d="M179 314L134 315L180 359Z" fill="#151b2b" stroke="#151b2b"></path><path d="M179 450L134 449L179 494Z" fill="#111520" stroke="#111520"></path><path d="M134 315L134 359L180 359Z" fill="#111520" stroke="#111520"></path><path d="M719 359L720 314L674 315Z" fill="#121824" stroke="#121824"></path><path d="M360 630L359 584L314 585Z" fill="#10141e" stroke="#10141e"></path><path d="M540 45L494 45L539 90Z" fill="#131926" stroke="#131926"></path><path d="M405 45L360 45L404 89Z" fill="#161d2f" stroke="#161d2f"></path><path d="M135 225L135 270L180 225Z" fill="#131926" stroke="#131926"></path><path d="M719 450L719 404L675 449Z" fill="#121824" stroke="#121824"></path><path d="M719 359L764 314L720 314Z" fill="#141a28" stroke="#141a28"></path><path d="M494 675L495 629L450 629Z" fill="#111621" stroke="#111621"></path><path d="M450 629L495 629L494 585Z" fill="#10141e" stroke="#10141e"></path><path d="M720 314L720 270L675 270Z" fill="#111520" stroke="#111520"></path><path d="M134 359L134 405L180 405Z" fill="#161d2f" stroke="#161d2f"></path><path d="M314 630L360 630L314 585Z" fill="#141a28" stroke="#141a28"></path><path d="M360 45L315 45L360 89Z" fill="#151b2b" stroke="#151b2b"></path><path d="M179 179L135 225L180 225Z" fill="#121723" stroke="#121723"></path><path d="M89 315L90 359L134 315Z" fill="#151b2b" stroke="#151b2b"></path><path d="M584 89L540 45L539 90Z" fill="#141b2a" stroke="#141b2a"></path><path d="M674 494L719 450L675 449Z" fill="#111520" stroke="#111520"></path><path d="M764 360L764 314L719 359Z" fill="#121723" stroke="#121723"></path><path d="M720 495L719 450L674 494Z" fill="#121824" stroke="#121824"></path><path d="M720 270L720 225L675 270Z" fill="#141b2a" stroke="#141b2a"></path><path d="M495 629L540 629L540 585Z" fill="#111621" stroke="#111621"></path><path d="M584 630L540 629L539 675Z" fill="#151c2d" stroke="#151c2d"></path><path d="M134 405L134 449L179 450Z" fill="#111520" stroke="#111520"></path><path d="M269 629L314 630L314 585Z" fill="#161d2f" stroke="#161d2f"></path><path d="M269 629L314 585L269 584Z" fill="#121723" stroke="#121723"></path><path d="M180 539L224 495L179 494Z" fill="#111520" stroke="#111520"></path><path d="M629 134L629 90L584 89Z" fill="#151b2b" stroke="#151b2b"></path><path d="M584 89L584 45L540 45Z" fill="#121824" stroke="#121824"></path><path d="M675 90L629 90L629 134Z" fill="#151c2d" stroke="#151c2d"></path><path d="M675 135L629 134L674 179Z" fill="#121723" stroke="#121723"></path><path d="M630 584L674 539L630 539Z" fill="#111520" stroke="#111520"></path><path d="M630 539L674 539L630 495Z" fill="#10141e" stroke="#10141e"></path><path d="M630 584L630 539L585 584Z" fill="#111621" stroke="#111621"></path><path d="M134 495L180 539L179 494Z" fill="#131926" stroke="#131926"></path><path d="M719 179L675 135L674 179Z" fill="#141b2a" stroke="#141b2a"></path><path d="M630 630L630 584L585 584Z" fill="#161d2f" stroke="#161d2f"></path><path d="M269 45L224 89L270 89Z" fill="#121723" stroke="#121723"></path><path d="M270 89L224 89L269 135Z" fill="#151c2d" stroke="#151c2d"></path><path d="M179 179L134 180L135 225Z" fill="#10141e" stroke="#10141e"></path><path d="M224 89L179 134L224 135Z" fill="#121723" stroke="#121723"></path><path d="M180 584L225 585L225 539Z" fill="#161d2f" stroke="#161d2f"></path><path d="M629 45L584 89L629 90Z" fill="#121723" stroke="#121723"></path><path d="M629 45L584 45L584 89Z" fill="#141b2a" stroke="#141b2a"></path><path d="M315 45L269 45L270 89Z" fill="#131926" stroke="#131926"></path><path d="M720 225L719 179L674 224Z" fill="#111621" stroke="#111621"></path><path d="M134 134L134 180L179 179Z" fill="#121723" stroke="#121723"></path><path d="M89 315L134 315L90 269Z" fill="#141a28" stroke="#141a28"></path><path d="M225 585L269 629L269 584Z" fill="#151c2d" stroke="#151c2d"></path><path d="M539 675L540 629L495 629Z" fill="#111621" stroke="#111621"></path><path d="M540 629L584 630L540 585Z" fill="#141a28" stroke="#141a28"></path><path d="M134 449L134 495L179 494Z" fill="#10141e" stroke="#10141e"></path><path d="M180 539L180 584L225 539Z" fill="#10141e" stroke="#10141e"></path><path d="M225 585L225 630L269 629Z" fill="#10141e" stroke="#10141e"></path><path d="M719 539L674 494L674 539Z" fill="#151c2d" stroke="#151c2d"></path><path d="M719 539L720 495L674 494Z" fill="#131926" stroke="#131926"></path><path d="M764 360L719 359L719 404Z" fill="#161d2f" stroke="#161d2f"></path><path d="M675 585L674 539L630 584Z" fill="#10141e" stroke="#10141e"></path><path d="M495 0L450 0L494 45Z" fill="#10141e" stroke="#10141e"></path><path d="M494 45L450 0L450 45Z" fill="#111520" stroke="#111520"></path><path d="M450 45L450 0L405 45Z" fill="#111520" stroke="#111520"></path><path d="M405 45L404 0L360 45Z" fill="#111520" stroke="#111520"></path><path d="M360 45L359 0L315 45Z" fill="#141b2a" stroke="#141b2a"></path><path d="M315 45L314 0L269 45Z" fill="#161d2f" stroke="#161d2f"></path><path d="M495 0L494 45L540 45Z" fill="#111621" stroke="#111621"></path><path d="M450 0L404 0L405 45Z" fill="#10141e" stroke="#10141e"></path><path d="M134 359L90 359L134 405Z" fill="#131926" stroke="#131926"></path><path d="M134 405L89 405L134 449Z" fill="#131926" stroke="#131926"></path><path d="M134 449L89 450L134 495Z" fill="#131926" stroke="#131926"></path><path d="M134 315L90 359L134 359Z" fill="#151c2d" stroke="#151c2d"></path><path d="M134 315L135 270L90 269Z" fill="#111621" stroke="#111621"></path><path d="M764 360L719 404L765 405Z" fill="#141b2a" stroke="#141b2a"></path><path d="M720 314L764 314L720 270Z" fill="#131926" stroke="#131926"></path><path d="M720 270L764 270L720 225Z" fill="#131926" stroke="#131926"></path><path d="M720 225L765 180L719 179Z" fill="#141b2a" stroke="#141b2a"></path><path d="M765 405L719 404L764 450Z" fill="#151b2b" stroke="#151b2b"></path><path d="M90 269L135 270L135 225Z" fill="#151c2d" stroke="#151c2d"></path><path d="M360 630L405 675L405 630Z" fill="#121824" stroke="#121824"></path><path d="M405 630L450 675L450 629Z" fill="#141a28" stroke="#141a28"></path><path d="M359 675L405 675L360 630Z" fill="#141a28" stroke="#141a28"></path><path d="M359 675L360 630L314 630Z" fill="#131926" stroke="#131926"></path><path d="M405 675L450 675L405 630Z" fill="#131926" stroke="#131926"></path><path d="M404 0L359 0L360 45Z" fill="#151c2d" stroke="#151c2d"></path><path d="M539 0L495 0L540 45Z" fill="#141a28" stroke="#141a28"></path><path d="M764 314L764 270L720 270Z" fill="#151c2d" stroke="#151c2d"></path><path d="M90 224L90 269L135 225Z" fill="#111621" stroke="#111621"></path><path d="M764 450L719 404L719 450Z" fill="#141a28" stroke="#141a28"></path><path d="M764 360L810 314L764 314Z" fill="#141b2a" stroke="#141b2a"></path><path d="M809 269L764 225L764 270Z" fill="#151b2b" stroke="#151b2b"></path><path d="M45 360L89 405L90 359Z" fill="#111520" stroke="#111520"></path><path d="M90 359L89 405L134 405Z" fill="#161d2f" stroke="#161d2f"></path><path d="M450 675L494 675L450 629Z" fill="#131926" stroke="#131926"></path><path d="M314 675L359 675L314 630Z" fill="#141a28" stroke="#141a28"></path><path d="M135 540L180 584L180 539Z" fill="#121824" stroke="#121824"></path><path d="M269 675L314 675L314 630Z" fill="#161d2f" stroke="#161d2f"></path><path d="M719 135L675 135L719 179Z" fill="#111621" stroke="#111621"></path><path d="M719 135L675 90L675 135Z" fill="#111520" stroke="#111520"></path><path d="M675 135L675 90L629 134Z" fill="#121723" stroke="#121723"></path><path d="M584 0L539 0L540 45Z" fill="#121723" stroke="#121723"></path><path d="M224 89L179 90L179 134Z" fill="#121824" stroke="#121824"></path><path d="M179 134L134 134L179 179Z" fill="#121824" stroke="#121824"></path><path d="M179 44L179 90L224 89Z" fill="#141b2a" stroke="#141b2a"></path><path d="M674 629L675 585L630 584Z" fill="#141b2a" stroke="#141b2a"></path><path d="M630 630L585 584L584 630Z" fill="#111520" stroke="#111520"></path><path d="M675 90L629 45L629 90Z" fill="#151c2d" stroke="#151c2d"></path><path d="M584 0L540 45L584 45Z" fill="#161d2f" stroke="#161d2f"></path><path d="M765 135L719 135L719 179Z" fill="#151b2b" stroke="#151b2b"></path><path d="M765 180L764 225L810 225Z" fill="#141b2a" stroke="#141b2a"></path><path d="M764 270L764 225L720 225Z" fill="#121723" stroke="#121723"></path><path d="M359 0L314 0L315 45Z" fill="#141a28" stroke="#141a28"></path><path d="M269 45L225 44L224 89Z" fill="#141b2a" stroke="#141b2a"></path><path d="M89 180L90 224L134 180Z" fill="#121723" stroke="#121723"></path><path d="M134 180L90 224L135 225Z" fill="#141a28" stroke="#141a28"></path><path d="M90 269L45 314L89 315Z" fill="#111520" stroke="#111520"></path><path d="M675 585L719 539L674 539Z" fill="#161d2f" stroke="#161d2f"></path><path d="M764 494L764 450L719 450Z" fill="#121824" stroke="#121824"></path><path d="M269 0L225 44L269 45Z" fill="#111520" stroke="#111520"></path><path d="M764 494L719 450L720 495Z" fill="#121824" stroke="#121824"></path><path d="M90 540L135 540L134 495Z" fill="#141b2a" stroke="#141b2a"></path><path d="M134 495L135 540L180 539Z" fill="#121723" stroke="#121723"></path><path d="M179 90L134 134L179 134Z" fill="#121723" stroke="#121723"></path><path d="M135 89L134 134L179 90Z" fill="#141a28" stroke="#141a28"></path><path d="M179 630L225 585L180 584Z" fill="#121723" stroke="#121723"></path><path d="M179 630L225 630L225 585Z" fill="#151c2d" stroke="#151c2d"></path><path d="M89 405L89 450L134 449Z" fill="#141b2a" stroke="#141b2a"></path><path d="M494 675L539 675L495 629Z" fill="#161d2f" stroke="#161d2f"></path><path d="M269 675L314 630L269 629Z" fill="#141a28" stroke="#141a28"></path><path d="M629 675L630 630L584 630Z" fill="#10141e" stroke="#10141e"></path><path d="M629 0L584 0L629 45Z" fill="#161d2f" stroke="#161d2f"></path><path d="M629 45L584 0L584 45Z" fill="#141b2a" stroke="#141b2a"></path><path d="M314 0L269 0L269 45Z" fill="#121723" stroke="#121723"></path><path d="M179 44L135 89L179 90Z" fill="#111520" stroke="#111520"></path><path d="M765 539L720 495L719 539Z" fill="#151c2d" stroke="#151c2d"></path><path d="M765 539L764 494L720 495Z" fill="#141a28" stroke="#141a28"></path><path d="M810 360L764 360L765 405Z" fill="#141a28" stroke="#141a28"></path><path d="M719 89L675 45L675 90Z" fill="#121723" stroke="#121723"></path><path d="M764 225L765 180L720 225Z" fill="#121824" stroke="#121824"></path><path d="M810 314L764 270L764 314Z" fill="#141a28" stroke="#141a28"></path><path d="M134 134L89 180L134 180Z" fill="#151b2b" stroke="#151b2b"></path><path d="M44 270L45 314L90 269Z" fill="#111621" stroke="#111621"></path><path d="M539 675L584 675L584 630Z" fill="#131926" stroke="#131926"></path><path d="M89 450L89 495L134 495Z" fill="#151b2b" stroke="#151b2b"></path><path d="M225 675L269 675L225 630Z" fill="#151b2b" stroke="#151b2b"></path><path d="M225 630L269 675L269 629Z" fill="#141a28" stroke="#141a28"></path><path d="M135 585L180 584L135 540Z" fill="#111520" stroke="#111520"></path><path d="M44 270L90 269L45 224Z" fill="#151c2d" stroke="#151c2d"></path><path d="M89 315L45 360L90 359Z" fill="#141b2a" stroke="#141b2a"></path><path d="M89 405L45 405L89 450Z" fill="#141a28" stroke="#141a28"></path><path d="M89 450L45 494L89 495Z" fill="#131926" stroke="#131926"></path><path d="M45 314L45 360L89 315Z" fill="#10141e" stroke="#10141e"></path><path d="M675 90L675 45L629 45Z" fill="#121723" stroke="#121723"></path><path d="M719 89L675 90L719 135Z" fill="#10141e" stroke="#10141e"></path><path d="M765 90L719 89L719 135Z" fill="#151b2b" stroke="#151b2b"></path><path d="M179 44L224 89L225 44Z" fill="#10141e" stroke="#10141e"></path><path d="M134 134L89 134L89 180Z" fill="#151c2d" stroke="#151c2d"></path><path d="M675 675L674 629L630 630Z" fill="#131926" stroke="#131926"></path><path d="M630 630L674 629L630 584Z" fill="#141a28" stroke="#141a28"></path><path d="M675 585L720 585L719 539Z" fill="#10141e" stroke="#10141e"></path><path d="M90 540L135 585L135 540Z" fill="#151b2b" stroke="#151b2b"></path><path d="M180 0L179 44L225 44Z" fill="#151c2d" stroke="#151c2d"></path><path d="M810 360L765 405L810 405Z" fill="#161d2f" stroke="#161d2f"></path><path d="M810 360L810 314L764 360Z" fill="#10141e" stroke="#10141e"></path><path d="M810 405L765 405L810 450Z" fill="#131926" stroke="#131926"></path><path d="M720 630L720 585L675 585Z" fill="#141a28" stroke="#141a28"></path><path d="M135 585L179 630L180 584Z" fill="#111621" stroke="#111621"></path><path d="M810 314L809 269L764 270Z" fill="#151c2d" stroke="#151c2d"></path><path d="M45 360L45 405L89 405Z" fill="#10141e" stroke="#10141e"></path><path d="M45 224L90 269L90 224Z" fill="#161d2f" stroke="#161d2f"></path><path d="M45 314L0 315L45 360Z" fill="#141b2a" stroke="#141b2a"></path><path d="M0 449L44 450L45 405Z" fill="#161d2f" stroke="#161d2f"></path><path d="M810 450L764 450L764 494Z" fill="#161d2f" stroke="#161d2f"></path><path d="M810 450L765 405L764 450Z" fill="#131926" stroke="#131926"></path><path d="M269 0L225 0L225 44Z" fill="#161d2f" stroke="#161d2f"></path><path d="M674 0L629 0L629 45Z" fill="#121723" stroke="#121723"></path><path d="M809 180L765 135L765 180Z" fill="#141b2a" stroke="#141b2a"></path><path d="M765 180L765 135L719 179Z" fill="#121824" stroke="#121824"></path><path d="M45 540L90 540L89 495Z" fill="#141a28" stroke="#141a28"></path><path d="M89 495L90 540L134 495Z" fill="#121824" stroke="#121824"></path><path d="M135 585L134 630L179 630Z" fill="#161d2f" stroke="#161d2f"></path><path d="M720 585L765 539L719 539Z" fill="#151b2b" stroke="#151b2b"></path><path d="M90 90L89 134L134 134Z" fill="#121723" stroke="#121723"></path><path d="M89 180L45 224L90 224Z" fill="#151c2d" stroke="#151c2d"></path><path d="M90 90L134 134L135 89Z" fill="#10141e" stroke="#10141e"></path><path d="M179 630L225 675L225 630Z" fill="#141b2a" stroke="#141b2a"></path><path d="M584 675L629 675L584 630Z" fill="#10141e" stroke="#10141e"></path><path d="M674 629L720 630L675 585Z" fill="#111520" stroke="#111520"></path><path d="M45 179L45 224L89 180Z" fill="#111520" stroke="#111520"></path><path d="M854 270L810 225L809 269Z" fill="#141b2a" stroke="#141b2a"></path><path d="M809 269L810 225L764 225Z" fill="#121824" stroke="#121824"></path><path d="M45 405L44 450L89 450Z" fill="#121723" stroke="#121723"></path><path d="M0 405L45 405L45 360Z" fill="#161d2f" stroke="#161d2f"></path><path d="M810 494L810 450L764 494Z" fill="#141b2a" stroke="#141b2a"></path><path d="M810 225L809 180L765 180Z" fill="#141a28" stroke="#141a28"></path><path d="M89 134L45 179L89 180Z" fill="#151c2d" stroke="#151c2d"></path><path d="M0 270L0 315L44 270Z" fill="#121824" stroke="#121824"></path><path d="M44 450L45 494L89 450Z" fill="#111520" stroke="#111520"></path><path d="M135 0L135 44L179 44Z" fill="#141a28" stroke="#141a28"></path><path d="M179 44L135 44L135 89Z" fill="#161d2f" stroke="#161d2f"></path><path d="M89 134L45 134L45 179Z" fill="#161d2f" stroke="#161d2f"></path><path d="M765 90L719 135L765 135Z" fill="#111621" stroke="#111621"></path><path d="M765 90L720 45L719 89Z" fill="#131926" stroke="#131926"></path><path d="M719 89L720 45L675 45Z" fill="#121824" stroke="#121824"></path><path d="M675 45L674 0L629 45Z" fill="#141b2a" stroke="#141b2a"></path><path d="M765 539L810 494L764 494Z" fill="#121723" stroke="#121723"></path><path d="M810 540L810 494L765 539Z" fill="#10141e" stroke="#10141e"></path><path d="M675 675L720 630L674 629Z" fill="#151b2b" stroke="#151b2b"></path><path d="M720 585L765 585L765 539Z" fill="#121824" stroke="#121824"></path><path d="M90 630L134 630L135 585Z" fill="#131926" stroke="#131926"></path><path d="M179 630L179 675L225 675Z" fill="#121824" stroke="#121824"></path><path d="M89 584L135 585L90 540Z" fill="#111520" stroke="#111520"></path><path d="M225 0L180 0L225 44Z" fill="#161d2f" stroke="#161d2f"></path><path d="M719 0L674 0L675 45Z" fill="#141b2a" stroke="#141b2a"></path><path d="M90 45L90 90L135 89Z" fill="#10141e" stroke="#10141e"></path><path d="M810 135L765 90L765 135Z" fill="#121723" stroke="#121723"></path><path d="M45 540L89 584L90 540Z" fill="#111621" stroke="#111621"></path><path d="M720 630L765 585L720 585Z" fill="#131926" stroke="#131926"></path><path d="M629 675L675 675L630 630Z" fill="#131926" stroke="#131926"></path><path d="M135 675L179 675L179 630Z" fill="#161d2f" stroke="#161d2f"></path><path d="M0 270L44 270L0 224Z" fill="#151c2d" stroke="#151c2d"></path><path d="M44 270L0 315L45 314Z" fill="#141b2a" stroke="#141b2a"></path><path d="M44 450L0 494L45 494Z" fill="#151c2d" stroke="#151c2d"></path><path d="M0 315L0 359L45 360Z" fill="#10141e" stroke="#10141e"></path><path d="M810 360L854 314L810 314Z" fill="#161d2f" stroke="#161d2f"></path><path d="M810 314L854 270L809 269Z" fill="#161d2f" stroke="#161d2f"></path><path d="M810 225L855 179L809 180Z" fill="#141b2a" stroke="#141b2a"></path><path d="M855 359L854 314L810 360Z" fill="#111520" stroke="#111520"></path><path d="M855 359L810 360L854 405Z" fill="#141a28" stroke="#141a28"></path><path d="M810 360L810 405L854 405Z" fill="#141b2a" stroke="#141b2a"></path><path d="M854 405L810 405L810 450Z" fill="#121723" stroke="#121723"></path><path d="M854 314L854 270L810 314Z" fill="#121824" stroke="#121824"></path><path d="M809 180L810 135L765 135Z" fill="#121723" stroke="#121723"></path><path d="M900 315L854 270L854 314Z" fill="#10141e" stroke="#10141e"></path><path d="M0 224L44 270L45 224Z" fill="#151b2b" stroke="#151b2b"></path><path d="M45 89L45 134L89 134Z" fill="#111520" stroke="#111520"></path><path d="M0 180L0 224L45 224Z" fill="#151b2b" stroke="#151b2b"></path><path d="M45 89L89 134L90 90Z" fill="#121723" stroke="#121723"></path><path d="M0 359L0 405L45 360Z" fill="#151b2b" stroke="#151b2b"></path><path d="M45 494L45 540L89 495Z" fill="#141a28" stroke="#141a28"></path><path d="M855 449L854 405L810 450Z" fill="#10141e" stroke="#10141e"></path><path d="M855 179L810 135L809 180Z" fill="#141b2a" stroke="#141b2a"></path><path d="M0 539L45 540L45 494Z" fill="#111520" stroke="#111520"></path><path d="M89 584L90 630L135 585Z" fill="#161d2f" stroke="#161d2f"></path><path d="M765 585L810 540L765 539Z" fill="#111520" stroke="#111520"></path><path d="M855 494L855 449L810 450Z" fill="#141b2a" stroke="#141b2a"></path><path d="M0 405L0 449L45 405Z" fill="#10141e" stroke="#10141e"></path><path d="M0 180L45 224L45 179Z" fill="#161d2f" stroke="#161d2f"></path><path d="M900 269L855 225L854 270Z" fill="#111621" stroke="#111621"></path><path d="M854 270L855 225L810 225Z" fill="#10141e" stroke="#10141e"></path><path d="M855 494L810 450L810 494Z" fill="#161d2f" stroke="#161d2f"></path><path d="M900 359L900 315L855 359Z" fill="#141b2a" stroke="#141b2a"></path><path d="M180 0L135 0L179 44Z" fill="#151c2d" stroke="#151c2d"></path><path d="M135 44L90 45L135 89Z" fill="#151b2b" stroke="#151b2b"></path><path d="M720 45L719 0L675 45Z" fill="#141a28" stroke="#141a28"></path><path d="M765 44L719 0L720 45Z" fill="#111520" stroke="#111520"></path><path d="M765 44L720 45L765 90Z" fill="#121723" stroke="#121723"></path><path d="M135 0L90 45L135 44Z" fill="#131926" stroke="#131926"></path><path d="M44 630L90 630L89 584Z" fill="#121824" stroke="#121824"></path><path d="M134 630L135 675L179 630Z" fill="#121723" stroke="#121723"></path><path d="M810 89L765 90L810 135Z" fill="#121824" stroke="#121824"></path><path d="M810 89L765 44L765 90Z" fill="#121824" stroke="#121824"></path><path d="M90 675L135 675L134 630Z" fill="#151c2d" stroke="#151c2d"></path><path d="M765 585L809 585L810 540Z" fill="#121824" stroke="#121824"></path><path d="M720 630L765 630L765 585Z" fill="#161d2f" stroke="#161d2f"></path><path d="M764 675L765 630L720 630Z" fill="#121824" stroke="#121824"></path><path d="M675 675L720 675L720 630Z" fill="#111621" stroke="#111621"></path><path d="M0 134L45 179L45 134Z" fill="#151b2b" stroke="#151b2b"></path><path d="M0 134L0 180L45 179Z" fill="#131926" stroke="#131926"></path><path d="M0 449L0 494L44 450Z" fill="#161d2f" stroke="#161d2f"></path><path d="M45 540L44 584L89 584Z" fill="#131926" stroke="#131926"></path><path d="M90 45L45 89L90 90Z" fill="#151b2b" stroke="#151b2b"></path><path d="M44 44L45 89L90 45Z" fill="#141a28" stroke="#141a28"></path><path d="M809 629L809 585L765 585Z" fill="#141b2a" stroke="#141b2a"></path><path d="M854 540L855 494L810 494Z" fill="#111520" stroke="#111520"></path><path d="M0 539L44 584L45 540Z" fill="#121723" stroke="#121723"></path><path d="M855 134L810 89L810 135Z" fill="#151c2d" stroke="#151c2d"></path><path d="M855 225L855 179L810 225Z" fill="#10141e" stroke="#10141e"></path><path d="M854 540L810 494L810 540Z" fill="#141b2a" stroke="#141b2a"></path><path d="M0 494L0 539L45 494Z" fill="#121723" stroke="#121723"></path><path d="M45 89L0 134L45 134Z" fill="#141b2a" stroke="#141b2a"></path><path d="M855 584L810 540L809 585Z" fill="#121723" stroke="#121723"></path><path d="M855 584L854 540L810 540Z" fill="#141a28" stroke="#141a28"></path><path d="M855 179L855 134L810 135Z" fill="#161d2f" stroke="#161d2f"></path><path d="M900 359L855 359L900 404Z" fill="#121824" stroke="#121824"></path><path d="M855 359L900 315L854 314Z" fill="#151b2b" stroke="#151b2b"></path><path d="M855 225L900 224L855 179Z" fill="#121824" stroke="#121824"></path><path d="M855 179L900 134L855 134Z" fill="#121824" stroke="#121824"></path><path d="M855 359L854 405L900 404Z" fill="#111520" stroke="#111520"></path><path d="M854 405L855 449L900 404Z" fill="#111621" stroke="#111621"></path><path d="M900 404L855 449L900 449Z" fill="#121723" stroke="#121723"></path><path d="M135 0L89 0L90 45Z" fill="#121824" stroke="#121824"></path><path d="M45 89L0 89L0 134Z" fill="#141b2a" stroke="#141b2a"></path><path d="M810 45L765 44L810 89Z" fill="#121723" stroke="#121723"></path><path d="M810 0L765 0L765 44Z" fill="#121723" stroke="#121723"></path><path d="M765 44L765 0L719 0Z" fill="#111621" stroke="#111621"></path><path d="M765 630L809 629L765 585Z" fill="#161d2f" stroke="#161d2f"></path><path d="M720 675L764 675L720 630Z" fill="#121824" stroke="#121824"></path><path d="M44 630L90 675L90 630Z" fill="#141a28" stroke="#141a28"></path><path d="M90 630L90 675L134 630Z" fill="#121824" stroke="#121824"></path><path d="M44 630L89 584L44 584Z" fill="#131926" stroke="#131926"></path><path d="M900 449L855 449L855 494Z" fill="#121723" stroke="#121723"></path><path d="M900 315L900 269L854 270Z" fill="#141b2a" stroke="#141b2a"></path><path d="M810 675L809 629L765 630Z" fill="#111621" stroke="#111621"></path><path d="M854 45L810 45L810 89Z" fill="#111520" stroke="#111520"></path><path d="M89 0L44 44L90 45Z" fill="#161d2f" stroke="#161d2f"></path><path d="M0 629L44 630L44 584Z" fill="#141a28" stroke="#141a28"></path><path d="M900 269L900 224L855 225Z" fill="#121723" stroke="#121723"></path><path d="M900 495L900 449L855 494Z" fill="#111621" stroke="#111621"></path><path d="M0 45L0 89L45 89Z" fill="#121824" stroke="#121824"></path><path d="M0 539L0 584L44 584Z" fill="#151b2b" stroke="#151b2b"></path><path d="M900 134L855 90L855 134Z" fill="#141a28" stroke="#141a28"></path><path d="M855 134L855 90L810 89Z" fill="#151c2d" stroke="#151c2d"></path><path d="M855 629L855 584L809 585Z" fill="#131926" stroke="#131926"></path><path d="M854 540L900 495L855 494Z" fill="#111621" stroke="#111621"></path><path d="M855 629L809 585L809 629Z" fill="#151b2b" stroke="#151b2b"></path><path d="M900 224L900 180L855 179Z" fill="#141a28" stroke="#141a28"></path><path d="M900 540L900 495L854 540Z" fill="#111520" stroke="#111520"></path><path d="M89 0L44 0L44 44Z" fill="#121723" stroke="#121723"></path><path d="M44 44L0 45L45 89Z" fill="#111621" stroke="#111621"></path><path d="M854 45L810 0L810 45Z" fill="#121824" stroke="#121824"></path><path d="M810 45L810 0L765 44Z" fill="#141b2a" stroke="#141b2a"></path><path d="M0 675L44 675L44 630Z" fill="#141a28" stroke="#141a28"></path><path d="M44 630L44 675L90 675Z" fill="#131926" stroke="#131926"></path><path d="M764 675L810 675L765 630Z" fill="#141b2a" stroke="#141b2a"></path><path d="M855 584L900 540L854 540Z" fill="#161d2f" stroke="#161d2f"></path><path d="M900 180L900 134L855 179Z" fill="#151c2d" stroke="#151c2d"></path><path d="M855 90L854 45L810 89Z" fill="#10141e" stroke="#10141e"></path><path d="M900 584L900 540L855 584Z" fill="#161d2f" stroke="#161d2f"></path><path d="M0 0L0 45L44 44Z" fill="#10141e" stroke="#10141e"></path><path d="M900 45L854 45L855 90Z" fill="#121824" stroke="#121824"></path><path d="M0 584L0 629L44 584Z" fill="#151c2d" stroke="#151c2d"></path><path d="M810 675L855 629L809 629Z" fill="#10141e" stroke="#10141e"></path><path d="M900 134L900 90L855 90Z" fill="#141a28" stroke="#141a28"></path><path d="M854 45L854 0L810 0Z" fill="#161d2f" stroke="#161d2f"></path><path d="M900 630L900 584L855 629Z" fill="#151c2d" stroke="#151c2d"></path><path d="M855 629L900 584L855 584Z" fill="#141b2a" stroke="#141b2a"></path><path d="M44 0L0 0L44 44Z" fill="#141a28" stroke="#141a28"></path><path d="M900 45L854 0L854 45Z" fill="#121723" stroke="#121723"></path><path d="M0 629L0 675L44 630Z" fill="#10141e" stroke="#10141e"></path><path d="M810 675L854 675L855 629Z" fill="#151c2d" stroke="#151c2d"></path><path d="M900 90L900 45L855 90Z" fill="#10141e" stroke="#10141e"></path><path d="M854 675L900 630L855 629Z" fill="#121824" stroke="#121824"></path><path d="M900 45L900 0L854 0Z" fill="#151b2b" stroke="#151b2b"></path><path d="M854 675L900 675L900 630Z" fill="#10141e" stroke="#10141e"></path></g></svg>